<?xml version="1.0" encoding="UTF-8"?>
<svg xmlns="http://www.w3.org/2000/svg" xmlns:xlink="http://www.w3.org/1999/xlink" width="512" height="512" viewBox="0 0 60 60" version="1.1"><!-- Generator: Sketch 51.3 (57544) - http://www.bohemiancoding.com/sketch --><title>017 - Colour Palette</title><desc>Created with Sketch.</desc><defs/><g id="Page-1" stroke="none" stroke-width="1" fill="none" fill-rule="evenodd"><g id="017---Colour-Palette" fill-rule="nonzero"><path d="M19.75,42.38 C19.82,42.97 17.87,46.45 17.44,46.88 L7.46,50.46 C7.34538351,50.5726906 7.23847562,50.692962 7.14,50.82 C7.09793992,50.8621648 7.06101658,50.9091582 7.03,50.96 C7.01638825,50.9823598 6.99953863,51.0025793 6.98,51.02 C6.93,51.09 6.88,51.16 6.83,51.24 C6.74390839,51.360717 6.66702458,51.4877424 6.6,51.62 C6.54,51.72 6.5,51.82 6.45,51.92 C6.44,51.93 6.44,51.95 6.43,51.96 C6.39,52.07 6.35,52.16 6.31,52.27 C6.26,52.4 6.22,52.54 6.18,52.67 C6.14049547,52.8044058 6.11042236,52.9414055 6.09,53.08 C6.06024928,53.2150612 6.0401981,53.3520775 6.03,53.49 C6.01004247,53.6592677 6.00002529,53.8295598 6,54 L6,44.96 C5.99860575,44.3533767 5.72291136,43.7799324 5.25,43.4 L1.75,40.6 C1.27708864,40.2200676 1.00139425,39.6466233 1,39.04 L1,3 C1.0032948,1.89679813 1.89679813,1.0032948 3,1 L14,1 C15.1032019,1.0032948 15.9967052,1.89679813 16,3 L16,34.86 L15.5,37.5 C15.07,37.93 17.57,38.65 17.62,39.25 L19.75,42.38 Z" id="Shape" fill="#CAD9FC"/><path d="M16.75,42.38 C16.82,42.97 14.87,46.45 14.44,46.88 L6,49.91 L6,44.96 C5.99860575,44.3533767 5.72291136,43.7799324 5.25,43.4 L1.75,40.6 C1.27708864,40.2200676 1.00139425,39.6466233 1,39.04 L1,3 C1.0032948,1.89679813 1.89679813,1.0032948 3,1 L11,1 C12.1032019,1.0032948 12.9967052,1.89679813 13,3 L13,34.86 L12.5,37.5 C12.07,37.93 14.57,38.65 14.62,39.25 L16.75,42.38 Z" id="Shape" fill="#E8EDFC"/><path d="M50.6,21.47 L48.6,23.47 L28.06,44.01 L25.96,46 C25.3533767,46.0013943 24.7799324,46.2770886 24.4,46.75 L23.32,48.11 L21.6,50.25 C21.361525,50.5476501 21.0420053,50.7699247 20.68,50.89 C20.474286,50.9620708 20.2579722,50.9992498 20.04,51 L11,50 C9.63,50 8.4,49.57 7.49,50.43 L11.86,46.07 C11.87,46.06 11.87,46.06 11.87,46.05 L13.86,44.07 C14.2892679,43.6424219 14.4992626,43.0419108 14.43,42.44 L13.93,37.98 C13.8692382,37.3771962 14.082118,36.7789305 14.51,36.35 L39.99,10.87 C40.3651365,10.4944459 40.8741815,10.2834267 41.405,10.2834267 C41.9358185,10.2834267 42.4448635,10.4944459 42.82,10.87 L50.6,18.64 C50.9755541,19.0151365 51.1865733,19.5241815 51.1865733,20.055 C51.1865733,20.5858185 50.9755541,21.0948635 50.6,21.47 Z" id="Shape" fill="#CAD9FC"/><path d="M48.6,23.47 L28.06,44.01 L25.96,46 C25.3533767,46.0013943 24.7799324,46.2770886 24.4,46.75 L23.32,48.11 C22.9579947,48.2300753 22.638475,48.4523499 22.4,48.75 L20.68,50.89 C20.474286,50.9620708 20.2579722,50.9992498 20.04,51 L11,50 C9.63,50 8.4,49.57 7.49,50.43 L11.86,46.07 C11.87,46.06 11.87,46.06 11.87,46.05 L13.86,44.07 C14.2892679,43.6424219 14.4992626,43.0419108 14.43,42.44 L13.93,37.98 C13.8692382,37.3771962 14.082118,36.7789305 14.51,36.35 L37.99,12.87 C38.3651365,12.4944459 38.8741815,12.2834267 39.405,12.2834267 C39.9358185,12.2834267 40.4448635,12.4944459 40.82,12.87 L48.6,20.64 C48.9755541,21.0151365 49.1865733,21.5241815 49.1865733,22.055 C49.1865733,22.5858185 48.9755541,23.0948635 48.6,23.47 Z" id="Shape" fill="#E8EDFC"/><rect id="Rectangle-path" fill="#7FACFA" x="5" y="6" width="7" height="7" rx="0.5"/><rect id="Rectangle-path" fill="#A4C2F7" x="5" y="6" width="5" height="7" rx="0.5"/><rect id="Rectangle-path" fill="#7FACFA" x="5" y="17" width="7" height="7" rx="0.5"/><rect id="Rectangle-path" fill="#A4C2F7" x="5" y="17" width="5" height="7" rx="0.5"/><rect id="Rectangle-path" fill="#7FACFA" x="5" y="28" width="7" height="7" rx="0.5"/><rect id="Rectangle-path" fill="#A4C2F7" x="5" y="28" width="5" height="7" rx="0.5"/><path d="M45.29,21.12 L41.05,25.36 C40.9561167,25.4546563 40.8283188,25.5078992 40.695,25.5078992 C40.5616812,25.5078992 40.4338833,25.4546563 40.34,25.36 L40.2,25.22 L36.1,21.12 C35.9097728,20.9215584 35.9097728,20.6084416 36.1,20.41 L39.2,17.32 L40.34,16.17 C40.4338833,16.0753437 40.5616812,16.0221008 40.695,16.0221008 C40.8283188,16.0221008 40.9561167,16.0753437 41.05,16.17 L45.29,20.41 C45.3846563,20.5038833 45.4378992,20.6316812 45.4378992,20.765 C45.4378992,20.8983188 45.3846563,21.0261167 45.29,21.12 Z" id="Shape" fill="#7FACFA"/><path d="M43.29,22.12 L40.2,25.22 L36.1,21.12 C35.9097728,20.9215584 35.9097728,20.6084416 36.1,20.41 L39.2,17.32 L43.29,21.41 C43.3846563,21.5038833 43.4378992,21.6316812 43.4378992,21.765 C43.4378992,21.8983188 43.3846563,22.0261167 43.29,22.12 Z" id="Shape" fill="#A4C2F7"/><path d="M37.52,28.9 L33.27,33.14 C33.1788229,33.2358751 33.0523076,33.2901502 32.92,33.2901502 C32.7876924,33.2901502 32.6611771,33.2358751 32.57,33.14 L32.42,32.99 L28.32,28.9 C28.1297728,28.7015584 28.1297728,28.3884416 28.32,28.19 L31.42,25.1 L32.57,23.95 C32.6611771,23.8541249 32.7876924,23.7998498 32.92,23.7998498 C33.0523076,23.7998498 33.1788229,23.8541249 33.27,23.95 L37.52,28.19 C37.7102272,28.3884416 37.7102272,28.7015584 37.52,28.9 Z" id="Shape" fill="#7FACFA"/><path d="M35.52,29.9 L32.42,32.99 L28.32,28.9 C28.1297728,28.7015584 28.1297728,28.3884416 28.32,28.19 L31.42,25.1 L35.52,29.19 C35.7102272,29.3884416 35.7102272,29.7015584 35.52,29.9 Z" id="Shape" fill="#A4C2F7"/><path d="M29.74,36.68 L25.5,40.92 C25.3015584,41.1102272 24.9884416,41.1102272 24.79,40.92 L24.65,40.78 L20.55,36.68 C20.4553437,36.5861167 20.4021008,36.4583188 20.4021008,36.325 C20.4021008,36.1916812 20.4553437,36.0638833 20.55,35.97 L23.65,32.88 L24.79,31.73 C24.8838833,31.6353437 25.0116812,31.5821008 25.145,31.5821008 C25.2783188,31.5821008 25.4061167,31.6353437 25.5,31.73 L29.74,35.97 C29.9302272,36.1684416 29.9302272,36.4815584 29.74,36.68 Z" id="Shape" fill="#7FACFA"/><path d="M27.74,37.68 L24.65,40.78 L20.55,36.68 C20.4553437,36.5861167 20.4021008,36.4583188 20.4021008,36.325 C20.4021008,36.1916812 20.4553437,36.0638833 20.55,35.97 L23.65,32.88 L27.74,36.97 C27.9302272,37.1684416 27.9302272,37.4815584 27.74,37.68 Z" id="Shape" fill="#A4C2F7"/><path d="M59,46 L59,57 C58.9967052,58.1032019 58.1032019,58.9967052 57,59 L11,59 C10.8295598,58.9999747 10.6592677,58.9899575 10.49,58.97 C10.3388508,58.9598471 10.188529,58.9398042 10.04,58.91 C10.0235442,58.9056874 10.0068486,58.9023483 9.99,58.9 C9.88194345,58.8792377 9.77511449,58.8525305 9.67,58.82 C9.6,58.8 9.53,58.78 9.47,58.76 C9.40184831,58.7411484 9.33503275,58.7177629 9.27,58.69 C9.24,58.68 9.22,58.67 9.19,58.66 C9.1,58.63 9.02,58.59 8.93,58.55 C8.86626192,58.5281446 8.80572713,58.4978773 8.75,58.46 C8.60138941,58.3898449 8.4577243,58.3096597 8.32,58.22 C8.29547872,58.2088624 8.27204476,58.1954715 8.25,58.18 C8.1726664,58.1323958 8.09911541,58.0789042 8.03,58.02 C8.0078335,58.0102437 7.98753137,57.996709 7.97,57.98 C7.91529915,57.9462586 7.86492591,57.90596 7.82,57.86 C7.56744346,57.6607928 7.33920723,57.4325565 7.14,57.18 C7.09403996,57.1350741 7.05374137,57.0847009 7.02,57.03 C7.00329103,57.0124686 6.98975628,56.9921665 6.98,56.97 C6.92109581,56.9008846 6.86760418,56.8273336 6.82,56.75 C6.80452846,56.7279552 6.79113763,56.7045213 6.78,56.68 C6.69034029,56.5422757 6.61015511,56.3986106 6.54,56.25 C6.50212275,56.1942729 6.47185535,56.1337381 6.45,56.07 C6.41,55.98 6.37,55.9 6.34,55.81 C6.33,55.78 6.32,55.76 6.31,55.73 C6.28223709,55.6649673 6.25885164,55.5981517 6.24,55.53 C6.22,55.47 6.2,55.4 6.18,55.33 C6.14060341,55.2091437 6.11051553,55.085449 6.09,54.96 C6.0601958,54.811471 6.04015289,54.6611492 6.03,54.51 C5.99,54.1711765 5.99,53.8288235 6.03,53.49 C6.0401981,53.3520775 6.06024928,53.2150612 6.09,53.08 C6.11042236,52.9414055 6.14049547,52.8044058 6.18,52.67 C6.22,52.54 6.26,52.4 6.31,52.27 C6.35,52.16 6.39,52.07 6.43,51.96 C6.44,51.95 6.44,51.93 6.45,51.92 C6.5,51.82 6.54,51.72 6.6,51.62 C6.66702458,51.4877424 6.74390839,51.360717 6.83,51.24 C6.88,51.16 6.93,51.09 6.98,51.02 C6.99953863,51.0025793 7.01638825,50.9823598 7.03,50.96 C7.06101658,50.9091582 7.09793992,50.8621648 7.14,50.82 C7.23879494,50.6932275 7.34568465,50.5729766 7.46,50.46 C8.40086769,49.5249046 9.67348749,49.0000388 11,49 L20.04,49 C20.6466233,48.9986057 21.2200676,48.7229114 21.6,48.25 L24.4,44.75 C24.7799324,44.2770886 25.3533767,44.0013943 25.96,44 L57,44 C58.1032019,44.0032948 58.9967052,44.8967981 59,46 Z" id="Shape" fill="#CAD9FC"/><path d="M56,46 L56,57 C55.9967052,58.1032019 55.1032019,58.9967052 54,59 L11,59 C10.8295598,58.9999747 10.6592677,58.9899575 10.49,58.97 C10.3388508,58.9598471 10.188529,58.9398042 10.04,58.91 C10.0235442,58.9056874 10.0068486,58.9023483 9.99,58.9 C9.88194345,58.8792377 9.77511449,58.8525305 9.67,58.82 C9.6,58.8 9.53,58.78 9.47,58.76 C9.40184831,58.7411484 9.33503275,58.7177629 9.27,58.69 C9.24,58.68 9.22,58.67 9.19,58.66 C9.1,58.63 9.02,58.59 8.93,58.55 C8.86626192,58.5281446 8.80572713,58.4978773 8.75,58.46 C8.60138941,58.3898449 8.4577243,58.3096597 8.32,58.22 C8.29547872,58.2088624 8.27204476,58.1954715 8.25,58.18 C8.1726664,58.1323958 8.09911541,58.0789042 8.03,58.02 C8.0078335,58.0102437 7.98753137,57.996709 7.97,57.98 C7.91529915,57.9462586 7.86492591,57.90596 7.82,57.86 C7.56744346,57.6607928 7.33920723,57.4325565 7.14,57.18 C7.09403996,57.1350741 7.05374137,57.0847009 7.02,57.03 C7.00329103,57.0124686 6.98975628,56.9921665 6.98,56.97 C6.92109581,56.9008846 6.86760418,56.8273336 6.82,56.75 C6.80452846,56.7279552 6.79113763,56.7045213 6.78,56.68 C6.69034029,56.5422757 6.61015511,56.3986106 6.54,56.25 C6.50212275,56.1942729 6.47185535,56.1337381 6.45,56.07 C6.41,55.98 6.37,55.9 6.34,55.81 C6.33,55.78 6.32,55.76 6.31,55.73 C6.28223709,55.6649673 6.25885164,55.5981517 6.24,55.53 C6.22,55.47 6.2,55.4 6.18,55.33 C6.14060341,55.2091437 6.11051553,55.085449 6.09,54.96 C6.0601958,54.811471 6.04015289,54.6611492 6.03,54.51 C5.99,54.1711765 5.99,53.8288235 6.03,53.49 C6.0401981,53.3520775 6.06024928,53.2150612 6.09,53.08 C6.11042236,52.9414055 6.14049547,52.8044058 6.18,52.67 C6.22,52.54 6.26,52.4 6.31,52.27 C6.35,52.16 6.39,52.07 6.43,51.96 C6.44,51.95 6.44,51.93 6.45,51.92 C6.5,51.82 6.54,51.72 6.6,51.62 C6.66702458,51.4877424 6.74390839,51.360717 6.83,51.24 C6.88,51.16 6.93,51.09 6.98,51.02 C6.99953863,51.0025793 7.01638825,50.9823598 7.03,50.96 C7.06101658,50.9091582 7.09793992,50.8621648 7.14,50.82 C7.23879494,50.6932275 7.34568465,50.5729766 7.46,50.46 C8.40086769,49.5249046 9.67348749,49.0000388 11,49 L20.04,49 C20.6466233,48.9986057 21.2200676,48.7229114 21.6,48.25 L24.4,44.75 C24.7799324,44.2770886 25.3533767,44.0013943 25.96,44 L54,44 C55.1032019,44.0032948 55.9967052,44.8967981 56,46 Z" id="Shape" fill="#E8EDFC"/><circle id="Oval" fill="#A5A5A4" cx="11" cy="54" r="2"/><rect id="Rectangle-path" fill="#7FACFA" x="48" y="48" width="7" height="7" rx="0.5"/><rect id="Rectangle-path" fill="#A4C2F7" x="48" y="48" width="5" height="7" rx="0.5"/><rect id="Rectangle-path" fill="#7FACFA" x="37" y="48" width="7" height="7" rx="0.5"/><rect id="Rectangle-path" fill="#A4C2F7" x="37" y="48" width="5" height="7" rx="0.5"/><rect id="Rectangle-path" fill="#7FACFA" x="26" y="48" width="7" height="7" rx="0.5"/><rect id="Rectangle-path" fill="#A4C2F7" x="26" y="48" width="5" height="7" rx="0.5"/><path d="M4.875,43.442 C5.34736706,43.8214923 5.62300219,44.3940783 5.625,45 L5.625,54.04 C5.62502529,54.2104402 5.63504247,54.3807323 5.655,54.55 C5.66515289,54.7011492 5.6851958,54.851471 5.715,55 C5.73551553,55.125449 5.76560341,55.2491437 5.805,55.37 C5.825,55.44 5.845,55.51 5.865,55.57 C5.88385164,55.6381517 5.90723709,55.7049673 5.935,55.77 C5.945,55.8 5.955,55.82 5.965,55.85 C5.995,55.94 6.035,56.02 6.075,56.11 C6.09685535,56.1737381 6.12712275,56.2342729 6.165,56.29 C6.23515511,56.4386106 6.31534029,56.5822757 6.405,56.72 C6.41613763,56.7445213 6.42952846,56.7679552 6.445,56.79 C6.49260418,56.8673336 6.54609581,56.9408846 6.605,57.01 C6.61475628,57.0321665 6.62829103,57.0524686 6.645,57.07 C6.67874137,57.1247009 6.71903996,57.1750741 6.765,57.22 C6.96420723,57.4725565 7.19244346,57.7007928 7.445,57.9 C7.48992591,57.94596 7.54029915,57.9862586 7.595,58.02 C7.61253137,58.036709 7.6328335,58.0502437 7.655,58.06 C7.72411541,58.1189042 7.7976664,58.1723958 7.875,58.22 C7.89704476,58.2354715 7.92047872,58.2488624 7.945,58.26 C8.0827243,58.3496597 8.22638941,58.4298449 8.375,58.5 C8.43072713,58.5378773 8.49126192,58.5681446 8.555,58.59 C8.645,58.63 8.725,58.67 8.815,58.7 C8.845,58.71 8.865,58.72 8.895,58.73 C8.96003275,58.7577629 9.02684831,58.7811484 9.095,58.8 C9.155,58.82 9.225,58.84 9.295,58.86 C9.40011449,58.8925305 9.50694345,58.9192377 9.615,58.94 C9.63184863,58.9423483 9.64854424,58.9456874 9.665,58.95 C9.81352901,58.9798042 9.96385082,58.9998471 10.115,59.01 C10.2842677,59.0299575 10.4545598,59.0399747 10.625,59.04 L13.625,59.04 C13.4545598,59.0399747 13.2842677,59.0299575 13.115,59.01 C12.9638508,58.9998471 12.813529,58.9798042 12.665,58.95 C12.6485442,58.9456874 12.6318486,58.9423483 12.615,58.94 C12.5069434,58.9192377 12.4001145,58.8925305 12.295,58.86 C12.225,58.84 12.155,58.82 12.095,58.8 C12.0268483,58.7811484 11.9600327,58.7577629 11.895,58.73 C11.865,58.72 11.845,58.71 11.815,58.7 C11.725,58.67 11.645,58.63 11.555,58.59 C11.4912619,58.5681446 11.4307271,58.5378773 11.375,58.5 C11.2263894,58.4298449 11.0827243,58.3496597 10.945,58.26 C10.9204787,58.2488624 10.8970448,58.2354715 10.875,58.22 C10.7976664,58.1723958 10.7241154,58.1189042 10.655,58.06 C10.6328335,58.0502437 10.6125314,58.036709 10.595,58.02 C10.5402991,57.9862586 10.4899259,57.94596 10.445,57.9 C10.1924435,57.7007928 9.96420723,57.4725565 9.765,57.22 C9.71903996,57.1750741 9.67874137,57.1247009 9.645,57.07 C9.62829103,57.0524686 9.61475628,57.0321665 9.605,57.01 C9.54609581,56.9408846 9.49260418,56.8673336 9.445,56.79 C9.42952846,56.7679552 9.41613763,56.7445213 9.405,56.72 C9.31534029,56.5822757 9.23515511,56.4386106 9.165,56.29 C9.12712275,56.2342729 9.09685535,56.1737381 9.075,56.11 C9.035,56.02 8.995,55.94 8.965,55.85 C8.955,55.82 8.945,55.8 8.935,55.77 C8.90723709,55.7049673 8.88385164,55.6381517 8.865,55.57 C8.845,55.51 8.825,55.44 8.805,55.37 C8.76560341,55.2491437 8.73551553,55.125449 8.715,55 C8.6851958,54.851471 8.66515289,54.7011492 8.655,54.55 C8.63504247,54.3807323 8.62502529,54.2104402 8.625,54.04 L8.625,45 C8.62360575,44.3933767 8.34791136,43.8199324 7.875,43.44 L4.375,40.64 C3.90208864,40.2600676 3.62639425,39.6866233 3.625,39.08 L3.625,3.042 C3.6282948,1.93879813 4.52179813,1.0452948 5.625,1.042 L2.625,1.042 C1.52179813,1.0452948 0.628294801,1.93879813 0.625,3.042 L0.625,39.082 C0.626394251,39.6886233 0.902088637,40.2620676 1.375,40.642 L4.875,43.442 Z" id="Shape" fill="#FFFFFF"/><polygon id="Shape" fill="#FFFFFF" points="2 3 2 16 2 39.04 0 39.04 0 16 0 3"/><path d="M1,8 C1.55228475,8 2,7.55228475 2,7 L2,3 L0,3 L0,7 C6.76353751e-17,7.55228475 0.44771525,8 1,8 Z" id="Shape" fill="#428DFF"/><path d="M0,39.04 L2,39.04 L2,15 C2,14.4477153 1.55228475,14 1,14 C0.44771525,14 6.76353751e-17,14.4477153 0,15 L0,39.04 Z" id="Shape" fill="#428DFF"/><path d="M2,11 C1.99611961,10.7352731 1.89256504,10.481743 1.71,10.29 L1.56,10.17 C1.50427287,10.1321227 1.44373808,10.1018554 1.38,10.08 C1.32333758,10.0511123 1.26266255,10.0308873 1.2,10.02 C1.13385548,10.0088692 1.06703885,10.0021875 1,10 C0.735273141,10.0038804 0.481742984,10.107435 0.29,10.29 C0.199603156,10.3856071 0.12832305,10.4976187 0.08,10.62 C-0.0708765757,10.9929737 0.0113519394,11.4197788 0.29,11.71 C0.385607086,11.8003968 0.497618681,11.871677 0.62,11.92 C0.740222313,11.971241 0.869322743,11.99842 1,12 C1.26472686,11.9961196 1.51825702,11.892565 1.71,11.71 C1.89256504,11.518257 1.99611961,11.2647269 2,11 Z" id="Shape" fill="#428DFF"/><path d="M11,60 C10.7904505,60.0001338 10.5810794,59.9877785 10.373,59.963 C10.1959433,59.9505939 10.0198958,59.9265418 9.846,59.891 L9.814,59.884 C9.66772967,59.8562664 9.52316129,59.8202078 9.381,59.776 C9.314,59.757 9.231,59.733 9.158,59.709 C9.06169181,59.6825734 8.96744133,59.6491512 8.876,59.609 C8.77387406,59.5741521 8.67372525,59.5337587 8.576,59.488 C8.4680017,59.4490291 8.36442607,59.3987497 8.267,59.338 C8.11075774,59.2620516 7.95915816,59.1769021 7.813,59.083 C7.77856271,59.0645343 7.74517793,59.0441696 7.713,59.022 C7.61586533,58.9612987 7.52267829,58.894498 7.434,58.822 C7.33959891,58.7637784 7.25087582,58.6968176 7.169,58.622 C6.87974596,58.3887505 6.61624953,58.125254 6.383,57.836 C6.30592817,57.7544248 6.23724974,57.6653103 6.178,57.57 C6.10390301,57.4778875 6.03544471,57.381378 5.973,57.281 C5.961,57.262 5.947,57.237 5.932,57.21 C5.83452765,57.0572682 5.74539717,56.8993704 5.665,56.737 C5.60923521,56.6451954 5.56203624,56.5484542 5.524,56.448 C5.4751922,56.345132 5.43212609,56.2396368 5.395,56.132 C5.34885928,56.0239808 5.30977715,55.9130811 5.278,55.8 C5.278,55.8 5.255,55.728 5.234,55.657 C5.17908218,55.4848766 5.13631047,55.3091115 5.106,55.131 C5.06969913,54.9484778 5.04564546,54.7637323 5.034,54.578 C5.01100243,54.3861969 4.99964829,54.1931766 5,54 L5,44.96 C4.99975257,44.6548442 4.86018454,44.3665017 4.621,44.177 L1.121,41.377 C0.412728097,40.8079396 0.000504687588,39.9485585 0,39.04 C4.33869274e-17,38.4877153 0.44771525,38.04 1,38.04 C1.55228475,38.04 2,38.4877153 2,39.04 C2.00024743,39.3451558 2.13981546,39.6334983 2.379,39.823 L5.879,42.623 C6.5872719,43.1920604 6.99949531,44.0514415 7,44.96 L7,54 C7.00018532,54.1303334 7.00786466,54.2605483 7.023,54.39 C7.03071094,54.514876 7.04640972,54.6391302 7.07,54.762 C7.0831386,54.8473065 7.10252407,54.931533 7.128,55.014 L7.186,55.204 C7.192,55.22 7.244,55.375 7.25,55.391 L7.292,55.503 C7.30324408,55.5330805 7.31626707,55.5624657 7.331,55.591 C7.347,55.625 7.39,55.724 7.401,55.761 C7.501,55.935 7.557,56.038 7.622,56.141 C7.639,56.167 7.654,56.194 7.669,56.221 C7.684,56.248 7.693,56.262 7.701,56.277 C7.694,56.263 7.707,56.277 7.738,56.318 C7.7747775,56.3599899 7.80821289,56.4047934 7.838,56.452 C7.852,56.472 7.865,56.493 7.878,56.514 C8.003,56.662 8.078,56.747 8.169,56.833 C8.24790583,56.9138273 8.33209097,56.9893267 8.421,57.059 C8.45906024,57.0878846 8.49514115,57.1192883 8.529,57.153 C8.58514417,57.1847847 8.63806044,57.2219601 8.687,57.264 C8.71639774,57.2892287 8.74783904,57.3119734 8.781,57.332 C8.80932254,57.3458739 8.83671358,57.3615737 8.863,57.379 C8.96226836,57.4439621 9.06584077,57.5020963 9.173,57.553 C9.2206862,57.5748953 9.26650508,57.6006475 9.31,57.63 C9.343,57.641 9.377,57.654 9.41,57.668 C9.44222467,57.6847853 9.47564965,57.6991581 9.51,57.711 L9.61,57.747 L9.79,57.811 L9.95,57.858 C10.0241303,57.8817501 10.0995941,57.9011169 10.176,57.916 C10.2006188,57.9190301 10.2250069,57.9237073 10.249,57.93 C10.353803,57.9498864 10.4596343,57.9639082 10.566,57.972 C10.7100135,57.9896109 10.8549174,57.9989595 11,58 C11.5522847,58 12,58.4477153 12,59 C12,59.5522847 11.5522847,60 11,60 Z" id="Shape" fill="#428DFF"/><path d="M16,35.86 C15.4477153,35.86 15,35.4122847 15,34.86 L15,3 C15,2.44771525 14.5522847,2 14,2 L3,2 C2.44771525,2 2,2.44771525 2,3 C2,3.55228475 1.55228475,4 1,4 C0.44771525,4 6.76353751e-17,3.55228475 0,3 C-2.02906125e-16,1.34314575 1.34314575,3.04359188e-16 3,0 L14,0 C15.6568542,1.01453063e-16 17,1.34314575 17,3 L17,34.86 C17,35.4122847 16.5522847,35.86 16,35.86 Z" id="Shape" fill="#428DFF"/><path d="M11,57 C9.34314575,57 8,55.6568542 8,54 C8,52.3431458 9.34314575,51 11,51 C12.6568542,51 14,52.3431458 14,54 C14,55.6568542 12.6568542,57 11,57 Z M11,53 C10.4477153,53 10,53.4477153 10,54 C10,54.5522847 10.4477153,55 11,55 C11.5522847,55 12,54.5522847 12,54 C12,53.4477153 11.5522847,53 11,53 Z" id="Shape" fill="#428DFF"/><path d="M11.5,14 L5.5,14 C4.67157288,14 4,13.3284271 4,12.5 L4,6.5 C4,5.67157288 4.67157288,5 5.5,5 L11.5,5 C12.3284271,5 13,5.67157288 13,6.5 L13,12.5 C13,13.3284271 12.3284271,14 11.5,14 Z M6,12 L11,12 L11,7 L6,7 L6,12 Z" id="Shape" fill="#428DFF"/><path d="M11.5,25 L5.5,25 C4.67157288,25 4,24.3284271 4,23.5 L4,17.5 C4,16.6715729 4.67157288,16 5.5,16 L11.5,16 C12.3284271,16 13,16.6715729 13,17.5 L13,23.5 C13,24.3284271 12.3284271,25 11.5,25 Z M6,23 L11,23 L11,18 L6,18 L6,23 Z" id="Shape" fill="#428DFF"/><path d="M11.5,36 L5.5,36 C4.67157288,36 4,35.3284271 4,34.5 L4,28.5 C4,27.6715729 4.67157288,27 5.5,27 L11.5,27 C12.3284271,27 13,27.6715729 13,28.5 L13,34.5 C13,35.3284271 12.3284271,36 11.5,36 Z M6,34 L11,34 L11,29 L6,29 L6,34 Z" id="Shape" fill="#428DFF"/><path d="M57,60 L11,60 C7.6862915,60 5,57.3137085 5,54 C5,50.6862915 7.6862915,48 11,48 L20.039,48 C20.3429469,47.999871 20.6303371,47.8615116 20.82,47.624 L23.62,44.124 C24.1883167,43.4122191 25.0501688,42.9984122 25.961,43 L57,43 C58.6568542,43 60,44.3431458 60,46 L60,57 C60,58.6568542 58.6568542,60 57,60 Z M11,50 C8.790861,50 7,51.790861 7,54 C7,56.209139 8.790861,58 11,58 L57,58 C57.5522847,58 58,57.5522847 58,57 L58,46 C58,45.4477153 57.5522847,45 57,45 L25.961,45 C25.6570531,45.000129 25.3696629,45.1384884 25.18,45.376 L22.38,48.876 C21.8116833,49.5877809 20.9498312,50.0015878 20.039,50 L11,50 Z" id="Shape" fill="#428DFF"/><path d="M54.5,56 L48.5,56 C47.6715729,56 47,55.3284271 47,54.5 L47,48.5 C47,47.6715729 47.6715729,47 48.5,47 L54.5,47 C55.3284271,47 56,47.6715729 56,48.5 L56,54.5 C56,55.3284271 55.3284271,56 54.5,56 Z M49,54 L54,54 L54,49 L49,49 L49,54 Z" id="Shape" fill="#428DFF"/><path d="M43.5,56 L37.5,56 C36.6715729,56 36,55.3284271 36,54.5 L36,48.5 C36,47.6715729 36.6715729,47 37.5,47 L43.5,47 C44.3284271,47 45,47.6715729 45,48.5 L45,54.5 C45,55.3284271 44.3284271,56 43.5,56 Z M38,54 L43,54 L43,49 L38,49 L38,54 Z" id="Shape" fill="#428DFF"/><path d="M32.5,56 L26.5,56 C25.6715729,56 25,55.3284271 25,54.5 L25,48.5 C25,47.6715729 25.6715729,47 26.5,47 L32.5,47 C33.3284271,47 34,47.6715729 34,48.5 L34,54.5 C34,55.3284271 33.3284271,56 32.5,56 Z M27,54 L32,54 L32,49 L27,49 L27,54 Z" id="Shape" fill="#428DFF"/><path d="M11,60 C10.7904505,60.0001338 10.5810794,59.9877785 10.373,59.963 C10.1959433,59.9505939 10.0198958,59.9265418 9.846,59.891 L9.814,59.884 C9.6678538,59.8561171 9.52331197,59.8203989 9.381,59.777 C9.314,59.757 9.231,59.733 9.158,59.709 C9.06169181,59.6825734 8.96744133,59.6491512 8.876,59.609 C8.77371237,59.5745882 8.67353911,59.534185 8.576,59.488 C8.4680017,59.4490291 8.36442607,59.3987497 8.267,59.338 C8.11075774,59.2620516 7.95915816,59.1769021 7.813,59.083 C7.77856271,59.0645343 7.74517793,59.0441696 7.713,59.022 C7.61586533,58.9612987 7.52267829,58.894498 7.434,58.822 C7.33959891,58.7637784 7.25087582,58.6968176 7.169,58.622 C6.87974596,58.3887505 6.61624953,58.125254 6.383,57.836 C6.30592817,57.7544248 6.23724974,57.6653103 6.178,57.57 C6.10390301,57.4778875 6.03544471,57.381378 5.973,57.281 C5.961,57.262 5.947,57.237 5.932,57.21 C5.83452765,57.0572682 5.74539717,56.8993704 5.665,56.737 C5.60923521,56.6451954 5.56203624,56.5484542 5.524,56.448 C5.4751922,56.345132 5.43212609,56.2396368 5.395,56.132 C5.34885928,56.0239808 5.30977715,55.9130811 5.278,55.8 C5.278,55.8 5.255,55.728 5.234,55.657 C5.17908218,55.4848766 5.13631047,55.3091115 5.106,55.131 C5.06969913,54.9484778 5.04564546,54.7637323 5.034,54.578 C5.01100243,54.3861969 4.99964829,54.1931766 5,54 C4.99984834,53.7897851 5.0122035,53.5797474 5.037,53.371 C5.04998952,53.2027518 5.07505408,53.0356547 5.112,52.871 C5.13618616,52.710712 5.17160674,52.5523219 5.218,52.397 C5.285,52.175 5.327,52.041 5.376,51.914 L5.49,51.62 C5.50664293,51.5734219 5.5270434,51.5282734 5.551,51.485 L5.551,51.477 C5.632,51.304 5.679,51.208 5.736,51.111 C5.82074897,50.9476043 5.91769009,50.7908271 6.026,50.642 C6.06943559,50.5700845 6.11684232,50.5006437 6.168,50.434 C6.18552058,50.4091827 6.2045568,50.3854709 6.225,50.363 C6.27043279,50.292253 6.32160515,50.225361 6.378,50.163 C6.49316953,50.0179309 6.61706545,49.880009 6.749,49.75 L13.149,43.359 C13.3622718,43.1481555 13.4666458,42.8508925 13.432,42.553 L12.932,38.088 C12.8368927,37.1829891 13.1554909,36.2834177 13.799,35.64 L39.279,10.16 C40.467137,9.0278093 42.334863,9.0278093 43.523,10.16 L51.303,17.93 C52.4672562,19.1051239 52.4672562,20.9988761 51.303,22.174 L28.783,44.704 C28.5319255,44.9639566 28.1601221,45.0682126 27.8104927,44.9766972 C27.4608632,44.8851817 27.1878183,44.6121368 27.0963028,44.2625073 C27.0047874,43.9128779 27.1090434,43.5410745 27.369,43.29 L49.889,20.76 C50.077653,20.5715676 50.1832398,20.3155965 50.1823009,20.0489584 C50.1813621,19.7823204 50.0739753,19.5270992 49.884,19.34 L42.109,11.575 C41.7127746,11.1977301 41.0902254,11.1977301 40.694,11.575 L15.217,37.057 C15.0009304,37.2739215 14.893731,37.5764294 14.925,37.881 L15.425,42.329 C15.530772,43.2333475 15.2147375,44.1360924 14.568,44.777 L8.168,51.167 C8.0840897,51.2502259 8.00559571,51.3387404 7.933,51.432 C7.91199196,51.4587904 7.88962951,51.4844906 7.866,51.509 C7.83709126,51.5515401 7.80605169,51.5925924 7.773,51.632 C7.742,51.675 7.712,51.719 7.682,51.769 C7.60647917,51.8709258 7.53958114,51.9789661 7.482,52.092 C7.45340487,52.1407855 7.4276941,52.1912053 7.405,52.243 L7.347,52.365 L7.347,52.371 L7.253,52.612 C7.216,52.712 7.19,52.799 7.164,52.884 C7.12905567,52.9956317 7.10198917,53.1095783 7.083,53.225 C7.05853846,53.3354025 7.04150032,53.4473198 7.032,53.56 C7.01289703,53.7059309 7.00221268,53.8528407 7,54 C7.00018532,54.1303334 7.00786466,54.2605483 7.023,54.39 C7.03071094,54.514876 7.04640972,54.6391302 7.07,54.762 C7.0831386,54.8473065 7.10252407,54.931533 7.128,55.014 L7.186,55.204 C7.192,55.22 7.244,55.375 7.25,55.391 L7.292,55.503 C7.30324408,55.5330805 7.31626707,55.5624657 7.331,55.591 C7.347,55.625 7.39,55.724 7.401,55.761 C7.501,55.935 7.557,56.038 7.622,56.141 C7.639,56.167 7.654,56.194 7.669,56.221 C7.684,56.248 7.693,56.262 7.701,56.277 C7.694,56.263 7.707,56.277 7.738,56.318 C7.7747775,56.3599899 7.80821289,56.4047934 7.838,56.452 C7.852,56.472 7.865,56.493 7.878,56.514 C8.003,56.662 8.078,56.747 8.169,56.833 C8.24790583,56.9138273 8.33209097,56.9893267 8.421,57.059 C8.45906024,57.0878846 8.49514115,57.1192883 8.529,57.153 C8.58514417,57.1847847 8.63806044,57.2219601 8.687,57.264 C8.71639774,57.2892287 8.74783904,57.3119734 8.781,57.332 C8.80932254,57.3458739 8.83671358,57.3615737 8.863,57.379 C8.96226836,57.4439621 9.06584077,57.5020963 9.173,57.553 C9.2206862,57.5748953 9.26650508,57.6006475 9.31,57.63 C9.343,57.641 9.377,57.654 9.41,57.668 C9.44222467,57.6847853 9.47564965,57.6991581 9.51,57.711 L9.61,57.747 L9.79,57.811 L9.95,57.858 C10.0241303,57.8817501 10.0995941,57.9011169 10.176,57.916 C10.2009355,57.9191124 10.2256508,57.9237883 10.25,57.93 C10.3544673,57.9498845 10.4599656,57.9639065 10.566,57.972 C10.7100135,57.9896109 10.8549174,57.9989595 11,58 C11.5522847,58 12,58.4477153 12,59 C12,59.5522847 11.5522847,60 11,60 Z" id="Shape" fill="#428DFF"/><path d="M11,57 C9.56872055,56.9998285 8.33689437,55.9885961 8.05790422,54.5847708 C7.77891408,53.1809456 8.53046904,51.7755446 9.85291938,51.2281088 C11.1753697,50.6806729 12.7003642,51.1436833 13.4952187,52.3339636 C14.2900733,53.5242438 14.1333917,55.1102569 13.121,56.122 C12.5588572,56.6850283 11.7956158,57.0009765 11,57 Z M11,53 C10.5473492,52.9999033 10.1510794,53.3038757 10.0338845,53.741092 C9.91668958,54.1783084 10.1077982,54.6397262 10.499812,54.8660401 C10.8918258,55.092354 11.3869758,55.0271208 11.707,54.707 C11.9929079,54.4210057 12.0784219,53.9909634 11.923678,53.6173454 C11.7689341,53.2437275 11.4043959,53.0000863 11,53 Z" id="Shape" fill="#428DFF"/><path d="M40.7,26.508 C40.3022556,26.5089093 39.9206349,26.3508608 39.64,26.069 L35.4,21.827 C34.8144271,21.2412502 34.8144271,20.2917498 35.4,19.706 L39.642,15.463 C40.2277498,14.8774271 41.1772502,14.8774271 41.763,15.463 L46,19.706 C46.5855729,20.2917498 46.5855729,21.2412502 46,21.827 L41.757,26.069 C41.4769103,26.349842 41.0966389,26.5077787 40.7,26.508 Z M37.165,20.766 L40.7,24.3 L44.236,20.764 L40.7,17.23 L37.165,20.766 Z" id="Shape" fill="#428DFF"/><path d="M32.92,34.286 C32.5219751,34.2868428 32.1400682,34.1288248 31.859,33.847 L27.617,29.6 C27.0314271,29.0142502 27.0314271,28.0647498 27.617,27.479 L31.859,23.237 C32.4446351,22.6520932 33.3933649,22.6520932 33.979,23.237 L38.224,27.48 C38.5055125,27.7613322 38.6636798,28.1430087 38.6636798,28.541 C38.6636798,28.9389913 38.5055125,29.3206678 38.224,29.602 L33.98,33.847 C33.6993651,34.1288608 33.3177444,34.2869093 32.92,34.286 Z M29.385,28.544 L32.92,32.08 L36.456,28.544 L32.92,25.008 L29.385,28.544 Z" id="Shape" fill="#428DFF"/><path d="M25.143,42.065 C24.7454356,42.065489 24.3641627,41.9070754 24.084,41.625 L19.841,37.383 C19.2554271,36.7972502 19.2554271,35.8477498 19.841,35.262 L24.084,31.019 C24.3638831,30.736629 24.7454254,30.5784636 25.143,30.58 C25.5408546,30.5785323 25.922682,30.7366664 26.203,31.019 L30.445,35.262 C31.0305729,35.8477498 31.0305729,36.7972502 30.445,37.383 L26.2,41.625 C25.9205153,41.9068651 25.5399377,42.0652891 25.143,42.065 Z M21.606,36.322 L25.143,39.858 L28.678,36.322 L25.143,32.787 L21.606,36.322 Z" id="Shape" fill="#428DFF"/></g></g></svg>
