<svg height="512.00003pt" viewBox="0 0 512.00003 512.00003" width="512.00003pt" xmlns="http://www.w3.org/2000/svg"><path d="m187.734375 8.535156h136.53125v179.199219h-136.53125zm0 0" fill="#a4c2f7"/><path d="m341.332031 268.117188v64.683593s-59.730469 17.066407-59.730469 102.398438h-51.203124c0-85.332031-59.730469-102.398438-59.730469-102.398438v-64.683593c.015625-7.960938 1.851562-15.8125 5.375-22.953126l11.691406-23.296874h136.53125l11.691406 23.296874c3.523438 7.140626 5.359375 14.992188 5.375 22.953126zm0 0" fill="#a4c2f7"/><g fill="#e3e7f2"><path d="m102.398438 298.667969c0 9.425781-7.640626 17.066406-17.066407 17.066406s-17.066406-7.640625-17.066406-17.066406 7.640625-17.066407 17.066406-17.066407 17.066407 7.640626 17.066407 17.066407zm0 0"/><path d="m443.734375 298.667969c0 9.425781-7.640625 17.066406-17.066406 17.066406s-17.066407-7.640625-17.066407-17.066406 7.640626-17.066407 17.066407-17.066407 17.066406 7.640626 17.066406 17.066407zm0 0"/><path d="m238.933594 469.332031h34.132812v34.132813h-34.132812zm0 0"/></g><path d="m187.734375 187.734375h136.53125c4.714844 0 8.535156 3.820313 8.535156 8.53125v17.066406c0 4.714844-3.820312 8.535157-8.535156 8.535157h-136.53125c-4.714844 0-8.535156-3.820313-8.535156-8.535157v-17.066406c0-4.710937 3.820312-8.53125 8.535156-8.53125zm0 0" fill="#7fabfa"/><path d="m187.734375 8.535156h110.933594v179.199219h-110.933594zm0 0" fill="#e3e7f2"/><path d="m315.734375 268.117188v64.683593s-59.734375 17.066407-59.734375 102.398438h-25.601562c0-85.332031-59.730469-102.398438-59.730469-102.398438v-64.683593c.015625-7.960938 1.851562-15.8125 5.375-22.953126l11.691406-23.296874h110.933594l11.6875 23.296874c3.523437 7.140626 5.363281 14.992188 5.378906 22.953126zm0 0" fill="#d4e1f4"/><path d="m187.734375 187.734375h110.933594c4.710937 0 8.53125 3.820313 8.53125 8.53125v17.066406c0 4.714844-3.820313 8.535157-8.53125 8.535157h-110.933594c-4.714844 0-8.535156-3.820313-8.535156-8.535157v-17.066406c0-4.710937 3.820312-8.53125 8.535156-8.53125zm0 0" fill="#a4c2f7"/><path d="m230.398438 435.199219h25.601562c0-85.332031-59.734375-102.398438-59.734375-102.398438v-64.683593c.015625-7.960938 1.855469-15.8125 5.378906-22.953126l11.6875-23.296874c-4.710937 0-8.53125-3.820313-8.53125-8.535157v-17.066406c0-4.710937 3.820313-8.53125 8.53125-8.53125v-179.199219h-25.597656v179.199219c-4.714844 0-8.535156 3.820313-8.535156 8.53125v17.066406c0 4.714844 3.820312 8.535157 8.535156 8.535157l-11.691406 23.296874c-3.523438 7.140626-5.359375 14.992188-5.375 22.953126v64.683593s59.730469 17.066407 59.730469 102.398438zm0 0" fill="#fff"/><path d="m179.199219 187.734375v-179.199219h17.066406v179.199219zm0 0" fill="#fff"/><path d="m184.492188 127.316406c.480468.246094 1 .421875 1.535156.511719.5625.097656 1.132812.152344 1.707031.171875 2.257813-.03125 4.421875-.917969 6.058594-2.476562.769531-.8125 1.378906-1.769532 1.792969-2.8125 1.285156-3.183594.582031-6.828126-1.792969-9.304688-.816407-.769531-1.773438-1.378906-2.816407-1.789062-1.027343-.4375-2.128906-.671876-3.242187-.683594-3.46875-.019532-6.601563 2.058594-7.933594 5.261718-1.328125 3.199219-.585937 6.890626 1.875 9.328126l1.277344 1.027343c.476563.320313.992187.578125 1.539063.765625zm0 0" fill="#428dff"/><path d="m168.320312 341c.539063.152344 53.546876 16.207031 53.546876 94.199219 0 4.714843 3.820312 8.535156 8.53125 8.535156h51.203124c4.710938 0 8.53125-3.820313 8.53125-8.535156 0-77.398438 51.398438-93.558594 53.546876-94.199219 3.660156-1.046875 6.183593-4.390625 6.1875-8.199219v-64.710937c-.007813-9.273438-2.167969-18.417969-6.308594-26.714844l-7.761719-15.539062c3.515625-3.207032 5.527344-7.742188 5.535156-12.503907v-17.066406c-.015625-6.070313-3.269531-11.667969-8.53125-14.691406v-173.039063c0-4.714844-3.820312-8.535156-8.535156-8.535156h-136.53125c-4.714844 0-8.535156 3.820312-8.535156 8.535156v76.796875c0 4.714844 3.820312 8.535157 8.535156 8.535157 4.710937 0 8.53125-3.820313 8.53125-8.535157v-68.265625h17.066406v162.132813h-17.066406v-25.597657c0-4.714843-3.820313-8.535156-8.53125-8.535156-4.714844 0-8.535156 3.820313-8.535156 8.535156v27.972657c-5.261719 3.023437-8.515625 8.621093-8.53125 14.691406v17.066406c.007812 4.761719 2.019531 9.296875 5.535156 12.503907l-7.761719 15.539062c-4.140625 8.296875-6.300781 17.441406-6.308594 26.714844v64.710937c.003907 3.808594 2.527344 7.152344 6.1875 8.199219zm87.679688-16.734375c-4.710938 0-8.535156-3.820313-8.535156-8.53125 0-4.714844 3.824218-8.535156 8.535156-8.535156s8.535156 3.820312 8.535156 8.535156c0 4.710937-3.824218 8.53125-8.535156 8.53125zm76.800781 2.65625c-15.839843 6.917969-56.40625 31.246094-59.546875 99.746094h-8.71875v-85.335938c-.054687-.5-.152344-.992187-.300781-1.476562 11.863281-4.027344 19.066406-16.050781 17.023437-28.410157-2.042968-12.359374-12.730468-21.425781-25.257812-21.425781s-23.214844 9.066407-25.257812 21.425781c-2.042969 12.359376 5.160156 24.382813 17.023437 28.410157-.148437.484375-.246094.976562-.300781 1.476562v85.335938h-8.71875c-3.140625-68.5-43.707032-92.828125-59.546875-99.746094v-58.832031c.011719-6.625 1.554687-13.15625 4.507812-19.085938l9.300781-18.605468h125.984376l9.300781 18.605468c2.953125 5.929688 4.496093 12.460938 4.507812 19.085938zm-145.066406-130.65625h136.53125v17.066406h-136.53125zm128-17.066406h-17.066406v-162.132813h17.066406zm-85.335937-162.132813h17.066406v59.734375c0 4.710938 3.824218 8.53125 8.535156 8.53125s8.535156-3.820312 8.535156-8.53125v-59.734375h17.066406v162.132813h-17.066406v-68.265625c0-4.714844-3.824218-8.535156-8.535156-8.535156s-8.535156 3.820312-8.535156 8.535156v68.265625h-17.066406zm0 0" fill="#428dff"/><path d="m503.464844 477.867188h-171.109375c60.558593-28.363282 100.140625-88.242188 102.511719-155.066407 11.804687-4.015625 19-15.953125 17.039062-28.265625s-12.507812-21.421875-24.976562-21.570312c-12.464844-.148438-23.226563 8.703125-25.484376 20.964844-2.253906 12.261718 4.652344 24.367187 16.355469 28.664062-2.925781 77.042969-60.023437 141.21875-136.199219 153.089844v-6.351563c0-4.710937-3.820312-8.53125-8.535156-8.53125h-34.132812c-4.714844 0-8.535156 3.820313-8.535156 8.53125v6.351563c-76.191407-11.871094-133.296876-76.066406-136.207032-153.125 11.703125-4.296875 18.609375-16.398438 16.355469-28.660156-2.257813-12.265626-13.019531-21.117188-25.484375-20.96875-12.46875.148437-23.015625 9.257812-24.976562 21.574218-1.960938 12.3125 5.234374 24.246094 17.039062 28.261719 2.359375 66.839844 41.949219 126.734375 102.519531 155.101563h-171.109375c-4.714844 0-8.535156 3.820312-8.535156 8.53125 0 4.714843 3.820312 8.535156 8.535156 8.535156h221.863282v8.53125c0 4.714844 3.820312 8.535156 8.535156 8.535156h34.132812c4.714844 0 8.535156-3.820312 8.535156-8.535156v-8.53125h221.863282c4.714844 0 8.535156-3.820313 8.535156-8.535156 0-4.710938-3.820312-8.53125-8.535156-8.53125zm-76.796875-187.734376c4.710937 0 8.53125 3.820313 8.53125 8.535157 0 4.710937-3.820313 8.53125-8.53125 8.53125-4.714844 0-8.535157-3.820313-8.535157-8.53125 0-4.714844 3.820313-8.535157 8.535157-8.535157zm-341.335938 0c4.714844 0 8.535157 3.820313 8.535157 8.535157 0 4.710937-3.820313 8.53125-8.535157 8.53125-4.710937 0-8.53125-3.820313-8.53125-8.53125 0-4.714844 3.820313-8.535157 8.53125-8.535157zm179.203125 204.800782h-17.070312v-17.066406h17.070312zm0 0" fill="#428dff"/></svg>