<svg height="511pt" viewBox="-8 0 511 511.99019" width="511pt" xmlns="http://www.w3.org/2000/svg"><path d="m382.664062 145.058594c.628907.007812 1.253907.066406 1.875.167968v2.21875c-1.21875-1.058593-2.6875-1.789062-4.265624-2.132812.753906-.171875 1.527343-.257812 2.304687-.253906zm0 0" fill="#e3e7f2"/><path d="m486.941406 310.089844v35.925781c-.023437 2.515625-.765625 4.972656-2.132812 7.082031l-29.867188 44.714844c-1.371094 2.113281-2.109375 4.570312-2.132812 7.085938v26.023437h-25.601563v-26.023437c.023438-2.515626.761719-4.972657 2.132813-7.085938l29.867187-44.714844c1.371094-2.109375 2.109375-4.566406 2.132813-7.082031v-35.925781c-.007813-1.882813-.414063-3.742188-1.195313-5.460938l-13.394531-28.242187-5.121094-10.839844-40.023437-84.480469v-35.839844c.621093-.101562 1.25-.160156 1.878906-.167968h.085937c4.023438-.007813 7.6875 2.324218 9.386719 5.972656l54.269531 114.515625 5.121094 10.839844 13.398438 28.242187c.777344 1.71875 1.183594 3.578125 1.195312 5.460938zm0 0" fill="#a4c2f7"/><path d="m380.273438 145.3125c-1.578126.34375-3.046876 1.074219-4.265626 2.132812v-2.21875c.621094-.101562 1.246094-.160156 1.875-.167968h.085938c.777344-.003906 1.550781.082031 2.304688.253906zm0 0" fill="#e3e7f2"/><path d="m461.339844 310.089844v35.925781c-.023438 2.515625-.761719 4.972656-2.132813 7.082031l-29.867187 44.714844c-1.371094 2.113281-2.109375 4.570312-2.132813 7.085938v26.023437h-93.867187v-26.023437c-.023438-2.515626-.761719-4.972657-2.132813-7.085938l-3.15625-4.691406-8.449219-12.714844-18.261718-27.308594c-1.371094-2.109375-2.109375-4.566406-2.132813-7.082031v-35.925781c.007813-1.882813.417969-3.742188 1.195313-5.460938l58.539062-123.5625 14.25-30.035156c.640625-1.402344 1.605469-2.628906 2.816406-3.585938 1.21875-1.058593 2.6875-1.789062 4.265626-2.132812 1.578124.34375 3.046874 1.074219 4.265624 2.132812v127.148438c-1.480468.515625-2.910156 1.171875-4.265624 1.960938-7.941407 4.519531-12.832032 12.964843-12.800782 22.101562 0 14.140625 11.460938 25.601562 25.601563 25.601562 14.136719 0 25.597656-11.460937 25.597656-25.601562 0-6.347656-2.371094-12.464844-6.652344-17.152344-2.789062-3.199218-6.382812-5.585937-10.414062-6.910156v-93.527344l40.023437 84.480469 5.121094 10.839844 13.394531 28.242187c.78125 1.71875 1.1875 3.578125 1.195313 5.460938zm0 0" fill="#e3e7f2"/><path d="m427.207031 42.65625c0 18.851562-15.28125 34.132812-34.132812 34.132812-4.398438.035157-8.753907-.835937-12.800781-2.558593-12.890626-5.183594-21.332032-17.679688-21.332032-31.574219 0-13.890625 8.441406-26.390625 21.332032-31.574219 4.046874-1.722656 8.402343-2.59375 12.800781-2.558593 9.050781 0 17.734375 3.597656 24.136719 9.996093 6.398437 6.402344 9.996093 15.085938 9.996093 24.136719zm0 0" fill="#a4c2f7"/><path d="m401.605469 42.65625c0-17.4375-9.550781-31.574219-21.332031-31.574219s-21.332032 14.136719-21.332032 31.574219 9.550782 31.574219 21.332032 31.574219 21.332031-14.136719 21.332031-31.574219zm0 0" fill="#e3e7f2"/><path d="m77.339844 42.65625c0 18.851562-15.28125 34.132812-34.132813 34.132812-18.851562 0-34.132812-15.28125-34.132812-34.132812s15.28125-34.132812 34.132812-34.132812c18.851563 0 34.132813 15.28125 34.132813 34.132812zm0 0" fill="#e3e7f2"/><path d="m77.339844 392.523438c0 18.851562-15.28125 34.132812-34.132813 34.132812-18.851562 0-34.132812-15.28125-34.132812-34.132812 0-18.851563 15.28125-34.132813 34.132812-34.132813 18.851563 0 34.132813 15.28125 34.132813 34.132813zm0 0" fill="#e3e7f2"/><path d="m209.605469 196.257812h17.066406c7.070313 0 12.800781 5.730469 12.800781 12.800782v17.066406c0 7.066406-5.730468 12.796875-12.800781 12.796875h-17.066406c-7.066407 0-12.796875-5.730469-12.796875-12.796875v-17.066406c0-7.070313 5.730468-12.800782 12.796875-12.800782zm0 0" fill="#e3e7f2"/><path d="m461.339844 442.390625v26.226563h-136.53125v-26.226563c-.71875-7.851563 4.964844-14.839844 12.796875-15.734375h110.933593c7.835938.894531 13.519532 7.882812 12.800782 15.734375zm0 0" fill="#a4c2f7"/><path d="m435.742188 442.390625v26.226563h-110.933594v-26.226563c0-8.703125 4.640625-15.734375 10.402344-15.734375h90.128906c5.757812 0 10.402344 7.03125 10.402344 15.734375zm0 0" fill="#d4e1f4"/><path d="m461.339844 460.789062v29.867188c0 7.070312-5.730469 12.800781-12.800782 12.800781h-110.933593c-7.066407 0-12.796875-5.730469-12.796875-12.800781v-29.867188zm0 0" fill="#7fabfa"/><path d="m435.742188 460.789062v29.867188c.601562 6.390625-4.027344 12.085938-10.402344 12.800781h-90.128906c-6.378907-.714843-11.007813-6.410156-10.402344-12.800781v-29.867188zm0 0" fill="#a4c2f7"/><path d="m442.394531 270.242188c-9.296875 2.402343-18.351562 5.660156-27.046875 9.726562-1.28125.339844-2.5625.683594-3.757812 1.109375-2.6875-3.015625-6.136719-5.253906-9.984375-6.484375v-90.453125zm0 0" fill="#e3e7f2"/><path d="m319.601562 380.40625 8.449219 12.714844 3.15625 4.691406c1.371094 2.113281 2.109375 4.570312 2.132813 7.085938v22.039062c-5.832032 2.824219-9.25 9.015625-8.53125 15.453125v48.265625c-.605469 6.390625 4.023437 12.085938 10.402344 12.800781h25.597656c-6.378906-.714843-11.003906-6.410156-10.402344-12.800781v-48.265625c-.714844-6.4375 2.703125-12.628906 8.535156-15.453125v-22.039062c-.023437-2.515626-.765625-4.972657-2.132812-7.085938l-3.160156-4.691406-8.445313-12.714844-18.261719-27.308594c-1.371094-2.109375-2.109375-4.566406-2.132812-7.082031v-35.925781c.007812-1.882813.414062-3.742188 1.191406-5.460938l58.539062-123.5625v-35.839844c-.621093-.101562-1.246093-.160156-1.875-.167968h-.085937c-.777344-.003906-1.550781.082031-2.304687.253906-.753907-.171875-1.527344-.257812-2.304688-.253906h-.085938c-.628906.007812-1.253906.066406-1.875.167968v2.21875c-1.210937.957032-2.175781 2.183594-2.816406 3.585938l-14.25 30.035156-58.539062 123.5625c-.777344 1.71875-1.1875 3.578125-1.195313 5.460938v35.925781c.023438 2.515625.761719 4.972656 2.132813 7.082031zm0 0" fill="#fff"/><path d="m43.207031 76.789062c4.390625-.015624 8.738281-.886718 12.800781-2.558593-12.859374-5.210938-21.277343-17.699219-21.277343-31.574219s8.417969-26.363281 21.277343-31.574219c-12.777343-5.246093-27.460937-2.277343-37.191406 7.527344-9.734375 9.804687-12.597656 24.503906-7.257812 37.246094 5.34375 12.738281 17.835937 21.003906 31.648437 20.933593zm0 0" fill="#fff"/><path d="m43.207031 426.65625c4.390625-.019531 8.738281-.886719 12.800781-2.558594-12.894531-5.195312-21.339843-17.699218-21.339843-31.601562 0-13.898438 8.445312-26.40625 21.339843-31.597656-12.769531-5.1875-27.40625-2.183594-37.101562 7.609374-9.695312 9.796876-12.550781 24.460938-7.238281 37.175782 5.316406 12.71875 17.757812 20.992187 31.539062 20.972656zm0 0" fill="#fff"/><g fill="#428dff"><path d="m34.671875 84.46875v17.921875c0 4.710937 3.824219 8.53125 8.535156 8.53125 4.710938 0 8.535157-3.820313 8.535157-8.53125v-17.921875c16.742187-3.449219 29.828124-16.535156 33.277343-33.277344h17.921875c4.710938 0 8.53125-3.820312 8.53125-8.535156 0-4.710938-3.820312-8.53125-8.53125-8.53125h-17.921875c-4.277343-20.921875-23.359375-35.460938-44.667969-34.0273438-21.304687 1.4335938-38.269531 18.3984378-39.703124 39.7031248-1.433594 21.308594 13.101562 40.394531 34.023437 44.667969zm8.535156-67.410156c14.136719 0 25.601563 11.460937 25.601563 25.597656 0 14.140625-11.464844 25.601562-25.601563 25.601562s-25.601562-11.460937-25.601562-25.601562c0-14.136719 11.464843-25.597656 25.601562-25.597656zm0 0"/><path d="m43.207031 435.191406c20.265625-.027344 37.730469-14.28125 41.8125-34.132812h17.921875c4.710938 0 8.53125-3.820313 8.53125-8.535156 0-4.710938-3.820312-8.535157-8.53125-8.535157h-17.921875c-3.449219-16.742187-16.535156-29.828125-33.277343-33.277343v-17.921876c0-4.710937-3.824219-8.53125-8.535157-8.53125-4.710937 0-8.535156 3.820313-8.535156 8.53125v17.921876c-21.480469 4.359374-36.160156 24.292968-33.957031 46.101562s20.570312 38.398438 42.492187 38.378906zm0-68.269531c14.136719 0 25.601563 11.464844 25.601563 25.601563 0 14.136718-11.464844 25.601562-25.601563 25.601562s-25.601562-11.464844-25.601562-25.601562c0-14.136719 11.464843-25.601563 25.601562-25.601563zm0 0"/><path d="m403.484375 136.523438c-3.703125.003906-7.324219 1.097656-10.410156 3.148437-4.582031-3.035156-10.253907-3.929687-15.546875-2.457031-5.292969 1.476562-9.6875 5.171875-12.042969 10.136718l-72.746094 153.601563c-1.351562 2.847656-2.058593 5.960937-2.066406 9.113281v35.917969c0 4.210937 1.25 8.328125 3.585937 11.835937l29.867188 44.738282c.46875.703125.71875 1.527344.714844 2.371094v17.570312c-5.363282 3.992188-8.535156 10.273438-8.566406 16.957031v51.199219c0 11.78125 9.550781 21.332031 21.332031 21.332031h110.933593c11.785157 0 21.335938-9.550781 21.335938-21.332031v-51.199219c-.023438-6.679687-3.183594-12.957031-8.535156-16.957031v-17.570312c0-.839844.25-1.664063.71875-2.363282l29.867187-44.757812c2.320313-3.503906 3.554688-7.621094 3.546875-11.824219v-35.917969c0-3.160156-.703125-6.277344-2.054687-9.132812l-72.746094-153.597656c-3.167969-6.613282-9.855469-10.820313-17.1875-10.8125zm-10.410156 145.066406c9.425781 0 17.066406 7.640625 17.066406 17.066406s-7.640625 17.066406-17.066406 17.066406-17.066407-7.640625-17.066407-17.066406 7.640626-17.066406 17.066407-17.066406zm55.464843 153.601562c2.359376 0 4.269532 1.910156 4.269532 4.265625v12.800781h-119.46875v-12.800781c0-2.355469 1.910156-4.265625 4.265625-4.265625zm0 59.730469h-110.933593c-2.355469 0-4.265625-1.910156-4.265625-4.265625v-21.332031h119.46875v21.332031c0 2.355469-1.910156 4.265625-4.269532 4.265625zm29.867188-184.855469v35.917969c0 .839844-.25 1.660156-.714844 2.363281l-29.867187 44.757813c-2.324219 3.503906-3.558594 7.621093-3.550781 11.824219v13.195312h-102.398438v-13.195312c0-4.210938-1.25-8.328126-3.585938-11.835938l-29.867187-44.738281c-.457031-.707031-.691406-1.53125-.679687-2.371094v-35.917969c0-.628906.140624-1.25.40625-1.816406l72.75-153.601562c.714843-1.492188 3.640624-1.007813 3.640624.8125v110.273437c-16.640624 4.296875-27.492187 20.300781-25.328124 37.351563 2.167968 17.050781 16.675781 29.832031 33.863281 29.832031s31.695312-12.78125 33.859375-29.832031c2.167968-17.050782-8.683594-33.054688-25.328125-37.351563v-110.265625c.113281-.828125.730469-1.492188 1.542969-1.671875s1.652343.167969 2.101562.867187l72.746094 153.601563c.265625.5625.40625 1.175781.410156 1.800781zm0 0"/><path d="m188.273438 209.058594v17.066406c0 11.78125 9.550781 21.332031 21.332031 21.332031h17.066406c11.785156 0 21.335937-9.550781 21.335937-21.332031v-17.066406c0-5.660156-2.25-11.085938-6.25-15.085938s-9.425781-6.25-15.085937-6.25h-17.066406c-5.65625 0-11.082031 2.25-15.082031 6.25-4.003907 4-6.25 9.425782-6.25 15.085938zm17.066406 0c0-2.359375 1.910156-4.269532 4.265625-4.269532h17.066406c2.359375 0 4.269531 1.910157 4.269531 4.269532v17.066406c0 2.355469-1.910156 4.265625-4.269531 4.265625h-17.066406c-2.355469 0-4.265625-1.910156-4.265625-4.265625zm0 0"/><path d="m333.339844 51.191406h17.921875c3.449219 16.742188 16.535156 29.828125 33.277343 33.277344v17.921875c0 4.710937 3.820313 8.53125 8.535157 8.53125 4.710937 0 8.53125-3.820313 8.53125-8.53125v-17.921875c20.921875-4.273438 35.460937-23.359375 34.027343-44.667969-1.433593-21.304687-18.398437-38.269531-39.703124-39.7031248-21.308594-1.4335942-40.394532 13.1054688-44.667969 34.0273438h-17.921875c-4.710938 0-8.53125 3.820312-8.53125 8.53125 0 4.714844 3.820312 8.535156 8.53125 8.535156zm59.734375-34.132812c14.136719 0 25.597656 11.460937 25.597656 25.597656 0 14.140625-11.460937 25.601562-25.597656 25.601562-14.140625 0-25.601563-11.460937-25.601563-25.601562 0-14.136719 11.460938-25.597656 25.601563-25.597656zm0 0"/><path d="m241.179688 51.191406h46.082031c4.710937 0 8.53125-3.820312 8.53125-8.535156 0-4.710938-3.820313-8.53125-8.53125-8.53125h-46.082031c-4.710938 0-8.53125 3.820312-8.53125 8.53125 0 4.714844 3.820312 8.535156 8.53125 8.535156zm0 0"/><path d="m149.019531 51.191406h46.082031c4.710938 0 8.53125-3.820312 8.53125-8.535156 0-4.710938-3.820312-8.53125-8.53125-8.53125h-46.082031c-4.710937 0-8.53125 3.820312-8.53125 8.53125 0 4.714844 3.820313 8.535156 8.53125 8.535156zm0 0"/><path d="m43.207031 232.097656c-4.710937 0-8.535156 3.820313-8.535156 8.53125v46.082032c0 4.710937 3.824219 8.53125 8.535156 8.53125 4.710938 0 8.535157-3.820313 8.535157-8.53125v-46.082032c0-4.710937-3.824219-8.53125-8.535157-8.53125zm0 0"/><path d="m51.742188 148.46875c0-4.710938-3.824219-8.53125-8.535157-8.53125-4.710937 0-8.535156 3.820312-8.535156 8.53125v46.082031c0 4.710938 3.824219 8.53125 8.535156 8.53125 4.710938 0 8.535157-3.820312 8.535157-8.53125zm0 0"/><path d="m287.261719 401.058594c4.710937 0 8.53125-3.820313 8.53125-8.535156 0-4.710938-3.820313-8.535157-8.53125-8.535157h-46.082031c-4.710938 0-8.53125 3.824219-8.53125 8.535157 0 4.714843 3.820312 8.535156 8.53125 8.535156zm0 0"/><path d="m195.101562 401.058594c4.710938 0 8.53125-3.820313 8.53125-8.535156 0-4.710938-3.820312-8.535157-8.53125-8.535157h-46.082031c-4.710937 0-8.53125 3.824219-8.53125 8.535157 0 4.714843 3.820313 8.535156 8.53125 8.535156zm0 0"/></g></svg>