<svg height="512pt" viewBox="0 -9 512.00021 512" width="512pt" xmlns="http://www.w3.org/2000/svg"><path d="m458.128906 383.472656s45.867188 14.394532 42.667969 49.066406c-3.199219 34.667969-8.535156 49.066407-44.800781 49.59375zm0 0" fill="#a4c2f7"/><path d="m59.734375 59.734375h392.53125s48.53125-1.066406 50.664063 60.800781c0 0-20.796876-24.535156-85.863282-25.601562s-355.199218-2.132813-355.199218-2.132813zm0 0" fill="#e3e7f2"/><path d="m13.328125 348.261719 438.9375 1.605469s50.132813-6.402344 52.269531 55.464843c0 0-22.402344-19.199219-87.46875-20.265625s-374.398437-1.59375-374.398437-1.59375zm0 0" fill="#e3e7f2"/><path d="m7.824219 113.773438s-22.757813-97.414063 47.640625-107.375l3.558594 104.535156zm0 0" fill="#e3e7f2"/><path d="m504.917969 113.75v251.050781l-27.050781-6.65625-30.550782-7.59375h-440.234375l.769531-258.132812h446.546876zm0 0" fill="#a4c2f7"/><path d="m477.867188 113.75v251.050781l-57.601563-14.25h-413.183594l.769531-258.132812h419.496094zm0 0" fill="#e3e7f2"/><path d="m341.332031 221.867188c0 47.128906-38.203125 85.332031-85.332031 85.332031s-85.332031-38.203125-85.332031-85.332031c0-47.128907 38.203125-85.332032 85.332031-85.332032s85.332031 38.203125 85.332031 85.332032zm0 0" fill="#e3e7f2"/><path d="m307.199219 221.867188-85.332031-40.5v81zm0 0" fill="#a4c2f7"/><path d="m68.265625 383.472656-27.433594-32.921875h-8.148437l.707031-236.929687c-.632813-2.773438-15.71875-71.339844 22.398437-97.765625l-.324218-9.457031c-69.179688 9.816406-48.417969 103.964843-47.675782 107.222656l-.707031 236.929687h8.148438l27.4375 32.921875" fill="#fff"/><path d="m17.066406 59.734375v273.066406h-17.066406v-273.066406zm0 0" fill="#fff"/><g fill="#428dff"><path d="m256 315.734375c51.839844 0 93.867188-42.027344 93.867188-93.867187 0-51.839844-42.027344-93.867188-93.867188-93.867188s-93.867188 42.027344-93.867188 93.867188c.0625 51.816406 42.050782 93.804687 93.867188 93.867187zm0-170.667969c42.414062 0 76.800781 34.386719 76.800781 76.800782 0 42.414062-34.386719 76.800781-76.800781 76.800781s-76.800781-34.386719-76.800781-76.800781c.046875-42.394532 34.40625-76.753907 76.800781-76.800782zm0 0"/><path d="m217.308594 269.578125c2.472656 1.5625 5.574218 1.746094 8.21875.492187l85.332031-40.496093c2.972656-1.417969 4.867187-4.414063 4.867187-7.707031 0-3.292969-1.894531-6.292969-4.867187-7.707032l-85.332031-40.5c-2.640625-1.25-5.734375-1.066406-8.207032.488282-2.472656 1.558593-3.976562 4.273437-3.988281 7.195312v80.996094c-.007812 2.9375 1.496094 5.667968 3.976563 7.238281zm13.089844-74.71875 56.902343 27.007813-56.902343 27.007812zm0 0"/><path d="m8.535156 136.535156c2.257813-.035156 4.421875-.917968 6.058594-2.476562 3.296875-3.363282 3.296875-8.753906 0-12.117188l-1.28125-1.023437c-.476562-.324219-.992188-.582031-1.535156-.769531-.484375-.246094-1.003906-.417969-1.539063-.511719-.5625-.09375-1.132812-.152344-1.703125-.171875-2.261718.035156-4.425781.917968-6.058594 2.476562-.773437.816406-1.382812 1.773438-1.792968 2.816406-1.289063 3.183594-.5859378 6.824219 1.792968 9.300782.8125.773437 1.769532 1.378906 2.8125 1.792968 1.027344.4375 2.128907.667969 3.246094.683594zm0 0"/><path d="m452.265625 51.199219h-384v-42.664063c0-4.714844-3.820313-8.535156-8.53125-8.535156-32.976563.0390625-59.6953125 26.757812-59.734375 59.734375v34.132813c0 4.710937 3.820312 8.53125 8.535156 8.53125 4.710938 0 8.53125-3.820313 8.53125-8.53125v-34.132813c.027344-20.269531 14.28125-37.730469 34.132813-41.8125v255.828125c-12.972657 1.863281-24.972657 7.953125-34.132813 17.332031v-128.949219c0-4.710937-3.820312-8.53125-8.53125-8.53125-4.714844 0-8.535156 3.820313-8.535156 8.53125v170.667969c.0390625 32.972657 26.757812 59.695313 59.734375 59.734375h384v93.863282c0 4.714843 3.820313 8.535156 8.53125 8.535156 27.933594-.046875 52.113281-19.421875 58.25-46.667969.929687-1.332031 1.445313-2.910156 1.484375-4.53125v-332.800781c.015625-6.777344-1.152344-13.503906-3.457031-19.875-8.375-23.902344-30.949219-39.890625-56.277344-39.859375zm40.203125 45.585937c1.050781 3.039063 1.738281 6.1875 2.054688 9.386719-14.171876-12.351563-32.027344-19.675781-50.789063-20.839844v-16.460937c.523437.054687 1.050781.054687 1.578125 0 2.292969-.417969 4.621094-.621094 6.953125-.605469 18.105469-.023437 34.242187 11.421875 40.203125 28.519531zm-82.867188-11.453125v-17.066406h17.066407v17.066406zm-34.136718 0v-17.066406h17.070312v17.066406zm-34.132813 0v-17.066406h17.066407v17.066406zm-34.132812 0v-17.066406h17.066406v17.066406zm-34.132813 0v-17.066406h17.066406v17.066406zm-34.132812 0v-17.066406h17.066406v17.066406zm-34.132813 0v-17.066406h17.066407v17.066406zm-34.132812 0v-17.066406h17.066406v17.066406zm-34.132813 0v-17.066406h17.066406v17.066406zm-34.136718 0v-17.066406h17.066406v17.066406zm-17.066407-17.066406v17.066406h-17.066406v-17.066406zm-25.597656 221.867187c4.710937 0 8.53125-3.820312 8.53125-8.53125v-179.203124h375.417969c20.386718 1.78125 39.039062 12.191406 51.25 28.613281v224.632812c-15.5625-9.066406-33.191406-13.996093-51.199219-14.3125h-384c-14.972656-.011719-29.632813-4.253906-42.292969-12.242187 1.875-21.984375 20.230469-38.890625 42.292969-38.957032zm8.53125 68.265626h17.066406v17.066406h-17.066406zm34.132813 0h17.066406v17.066406h-17.066406zm34.136718 0h17.066406v17.066406h-17.066406zm34.132813 0h17.066406v17.066406h-17.066406zm34.132812 0h17.066407v17.066406h-17.066407zm34.132813 0h17.066406v17.066406h-17.066406zm34.132812 0h17.066406v17.066406h-17.066406zm34.132813 0h17.066406v17.066406h-17.066406zm34.132812 0h17.066407v17.066406h-17.066407zm34.132813 0h17.070312v17.066406h-17.070312zm34.136718 0h17.066407v17.066406h-17.066407zm-388.421874-7.617188c9.613281 3.804688 19.722656 6.207031 30.019531 7.125v16.707031c-13.207031-2.757812-24.335938-11.59375-30.019531-23.832031zm439.621093 126.230469v-83.625c19.882813 4.039062 34.175781 21.523437 34.175781 41.8125 0 20.292969-14.292968 37.777343-34.175781 41.8125zm-8.535156-101.546875h-8.53125v-17.066406c10.238281 0 38.527344 3.78125 51.199219 20.140624v14.941407c-11.207032-11.519531-26.59375-18.015625-42.667969-18.015625zm0 0"/><path d="m110.933594 136.535156c0 4.710938-3.820313 8.53125-8.535156 8.53125-4.710938 0-8.53125-3.820312-8.53125-8.53125 0-4.714844 3.820312-8.535156 8.53125-8.535156 4.714843 0 8.535156 3.820312 8.535156 8.535156zm0 0"/><path d="m110.933594 170.667969c0 4.710937-3.820313 8.53125-8.535156 8.53125-4.710938 0-8.53125-3.820313-8.53125-8.53125 0-4.714844 3.820312-8.535157 8.53125-8.535157 4.714843 0 8.535156 3.820313 8.535156 8.535157zm0 0"/><path d="m110.933594 204.800781c0 4.710938-3.820313 8.53125-8.535156 8.53125-4.710938 0-8.53125-3.820312-8.53125-8.53125 0-4.714843 3.820312-8.535156 8.53125-8.535156 4.714843 0 8.535156 3.820313 8.535156 8.535156zm0 0"/><path d="m110.933594 238.933594c0 4.710937-3.820313 8.53125-8.535156 8.53125-4.710938 0-8.53125-3.820313-8.53125-8.53125 0-4.714844 3.820312-8.535156 8.53125-8.535156 4.714843 0 8.535156 3.820312 8.535156 8.535156zm0 0"/><path d="m110.933594 273.066406c0 4.714844-3.820313 8.535156-8.535156 8.535156-4.710938 0-8.53125-3.820312-8.53125-8.535156 0-4.710937 3.820312-8.53125 8.53125-8.53125 4.714843 0 8.535156 3.820313 8.535156 8.53125zm0 0"/><path d="m110.933594 307.199219c0 4.714843-3.820313 8.535156-8.535156 8.535156-4.710938 0-8.53125-3.820313-8.53125-8.535156 0-4.710938 3.820312-8.53125 8.53125-8.53125 4.714843 0 8.535156 3.820312 8.535156 8.53125zm0 0"/><path d="m418.132812 136.535156c0 4.710938-3.820312 8.53125-8.53125 8.53125-4.714843 0-8.535156-3.820312-8.535156-8.53125 0-4.714844 3.820313-8.535156 8.535156-8.535156 4.710938 0 8.53125 3.820312 8.53125 8.535156zm0 0"/><path d="m418.132812 170.667969c0 4.710937-3.820312 8.53125-8.53125 8.53125-4.714843 0-8.535156-3.820313-8.535156-8.53125 0-4.714844 3.820313-8.535157 8.535156-8.535157 4.710938 0 8.53125 3.820313 8.53125 8.535157zm0 0"/><path d="m418.132812 204.800781c0 4.710938-3.820312 8.53125-8.53125 8.53125-4.714843 0-8.535156-3.820312-8.535156-8.53125 0-4.714843 3.820313-8.535156 8.535156-8.535156 4.710938 0 8.53125 3.820313 8.53125 8.535156zm0 0"/><path d="m418.132812 238.933594c0 4.710937-3.820312 8.53125-8.53125 8.53125-4.714843 0-8.535156-3.820313-8.535156-8.53125 0-4.714844 3.820313-8.535156 8.535156-8.535156 4.710938 0 8.53125 3.820312 8.53125 8.535156zm0 0"/><path d="m418.132812 273.066406c0 4.714844-3.820312 8.535156-8.53125 8.535156-4.714843 0-8.535156-3.820312-8.535156-8.535156 0-4.710937 3.820313-8.53125 8.535156-8.53125 4.710938 0 8.53125 3.820313 8.53125 8.53125zm0 0"/><path d="m418.132812 307.199219c0 4.714843-3.820312 8.535156-8.53125 8.535156-4.714843 0-8.535156-3.820313-8.535156-8.535156 0-4.710938 3.820313-8.53125 8.535156-8.53125 4.710938 0 8.53125 3.820312 8.53125 8.53125zm0 0"/></g></svg>