<svg height="512pt" viewBox="-94 0 512 512.00003" width="512pt" xmlns="http://www.w3.org/2000/svg" xmlns:xlink="http://www.w3.org/1999/xlink"><linearGradient id="a" gradientTransform="matrix(238.933594 0 0 375.464844 42.667969 76.800781)" gradientUnits="userSpaceOnUse" x1="-.121786" x2="1.121786" y1=".104318" y2=".895682"><stop offset="0" stop-color="#dae5f4"/><stop offset=".172" stop-color="#dae5f4"/><stop offset=".2" stop-color="#dae5f4"/><stop offset=".201" stop-color="#ebecf4"/><stop offset=".201" stop-color="#f6f1f4"/><stop offset=".202" stop-color="#fdf4f4"/><stop offset=".205" stop-color="#fff5f4"/><stop offset=".252" stop-color="#fff5f4"/><stop offset=".26" stop-color="#fff5f4"/><stop offset=".26" stop-color="#dae5f4"/><stop offset=".397" stop-color="#dae5f4"/><stop offset=".42" stop-color="#dae5f4"/><stop offset=".421" stop-color="#ebecf4"/><stop offset=".421" stop-color="#f6f1f4"/><stop offset=".422" stop-color="#fdf4f4"/><stop offset=".425" stop-color="#fff5f4"/><stop offset=".489" stop-color="#fff5f4"/><stop offset=".5" stop-color="#fff5f4"/><stop offset=".5" stop-color="#eeeef4"/><stop offset=".5" stop-color="#e3e9f4"/><stop offset=".5" stop-color="#dce6f4"/><stop offset=".501" stop-color="#dae5f4"/><stop offset=".706" stop-color="#dae5f4"/><stop offset=".74" stop-color="#dae5f4"/><stop offset=".741" stop-color="#fff5f4"/><stop offset=".835" stop-color="#fff5f4"/><stop offset=".85" stop-color="#fff5f4"/><stop offset=".851" stop-color="#dae5f4"/></linearGradient><path d="m25.601562 8.535156h273.066407c9.425781 0 17.066406 7.640625 17.066406 17.066406v460.796876c0 9.425781-7.640625 17.066406-17.066406 17.066406h-273.066407c-9.425781 0-17.066406-7.640625-17.066406-17.066406v-460.796876c0-9.425781 7.640625-17.066406 17.066406-17.066406zm0 0" fill="#7fabfa"/><path d="m25.601562 8.535156h247.464844c9.425782 0 17.066406 7.640625 17.066406 17.066406v460.796876c0 9.425781-7.640624 17.066406-17.066406 17.066406h-247.464844c-9.425781 0-17.066406-7.640625-17.066406-17.066406v-460.796876c0-9.425781 7.640625-17.066406 17.066406-17.066406zm0 0" fill="#e3e7f2"/><path d="m281.601562 93.867188v341.332031c-.070312 9.398437-7.671874 16.996093-17.066406 17.066406h-204.800781c-9.398437-.070313-16.996094-7.667969-17.066406-17.066406v-341.332031c.070312-9.398438 7.667969-16.996094 17.066406-17.066407h204.800781c9.394532.070313 16.996094 7.667969 17.066406 17.066407zm0 0" fill="url(#a)"/><path d="m25.601562 503.464844h25.597657c-9.414063-.027344-17.039063-7.652344-17.066407-17.066406v-460.796876c.027344-9.414062 7.652344-17.039062 17.066407-17.066406h-25.597657c-9.414062.027344-17.039062 7.652344-17.066406 17.066406v460.796876c.027344 9.414062 7.652344 17.039062 17.066406 17.066406zm0 0" fill="#fff"/><path d="m17.066406 25.601562v460.796876h-17.066406v-460.796876zm0 0" fill="#fff"/><g fill="#428dff"><path d="m141.183594 298.667969c4.714844 0 8.535156-3.820313 8.535156-8.535157 0-4.710937-3.820312-8.53125-8.535156-8.53125h-13.960938c-4.710937 0-8.53125 3.820313-8.53125 8.53125 0 4.714844 3.820313 8.535157 8.53125 8.535157zm0 0"/><path d="m197.042969 298.667969c4.714843 0 8.535156-3.820313 8.535156-8.535157 0-4.710937-3.820313-8.53125-8.535156-8.53125h-13.96875c-4.714844 0-8.535157 3.820313-8.535157 8.53125 0 4.714844 3.820313 8.535157 8.535157 8.535157zm0 0"/><path d="m68.265625 237.378906c0 4.714844 3.820313 8.535156 8.535156 8.535156 4.710938 0 8.53125-3.820312 8.53125-8.535156v-14.734375c0-4.714843-3.820312-8.535156-8.53125-8.535156-4.714843 0-8.535156 3.820313-8.535156 8.535156zm0 0"/><path d="m76.800781 186.957031c4.710938 0 8.53125-3.820312 8.53125-8.535156v-14.734375c0-4.714844-3.820312-8.535156-8.53125-8.535156-4.714843 0-8.535156 3.820312-8.535156 8.535156v14.734375c0 4.714844 3.820313 8.535156 8.535156 8.535156zm0 0"/><path d="m197.042969 119.464844c4.714843 0 8.535156-3.820313 8.535156-8.53125 0-4.714844-3.820313-8.535156-8.535156-8.535156h-13.960938c-4.710937 0-8.53125 3.820312-8.53125 8.535156 0 4.710937 3.820313 8.53125 8.53125 8.53125zm0 0"/><path d="m141.191406 119.464844c4.714844 0 8.535156-3.820313 8.535156-8.53125 0-4.714844-3.820312-8.535156-8.535156-8.535156h-13.96875c-4.710937 0-8.53125 3.820312-8.53125 8.535156 0 4.710937 3.820313 8.53125 8.53125 8.53125zm0 0"/><path d="m256 163.6875c0-4.714844-3.820312-8.535156-8.535156-8.535156-4.710938 0-8.53125 3.820312-8.53125 8.535156v14.734375c0 4.714844 3.820312 8.535156 8.53125 8.535156 4.714844 0 8.535156-3.820312 8.535156-8.535156zm0 0"/><path d="m247.464844 214.109375c-4.710938 0-8.53125 3.820313-8.53125 8.535156v14.734375c0 4.714844 3.820312 8.535156 8.53125 8.535156 4.714844 0 8.535156-3.820312 8.535156-8.535156v-14.734375c0-4.714843-3.820312-8.535156-8.535156-8.535156zm0 0"/><path d="m255.511719 108.5c-.09375-.296875-.082031-.636719-.203125-.929688-.167969-.273437-.347656-.539062-.546875-.792968-.355469-.710938-.8125-1.363282-1.355469-1.945313l-.058594-.078125c-.304687-.226562-.628906-.429687-.964844-.605468-.539062-.441407-1.128906-.8125-1.757812-1.109376-.628906-.210937-1.277344-.34375-1.9375-.390624-.402344-.113282-.808594-.195313-1.222656-.25h-8.53125c-4.714844 0-8.535156 3.820312-8.535156 8.535156.039062 1.492187.476562 2.945312 1.273437 4.207031l-69.539063 73.019531-69.539062-73.019531c.796875-1.261719 1.234375-2.714844 1.273438-4.207031 0-4.714844-3.820313-8.535156-8.535157-8.535156h-8.53125c-.402343.050781-.796875.132812-1.1875.242187-.671875.050781-1.332031.1875-1.96875.398437-.632812.296876-1.226562.671876-1.769531 1.109376-.332031.179687-.652344.382812-.953125.605468l-.0625.078125c-.535156.578125-.988281 1.226563-1.347656 1.929688-.199219.273437-.386719.558593-.554688.851562-.117187.273438-.101562.605469-.195312.90625-.273438.757813-.433594 1.550781-.476563 2.355469l-.019531.058594v8.53125c0 4.714844 3.820313 8.535156 8.535156 8.535156 1.257813-.007812 2.5-.300781 3.632813-.851562l69.914062 73.386718-69.914062 73.386719c-1.132813-.554687-2.375-.847656-3.632813-.855469-4.714843 0-8.535156 3.820313-8.535156 8.535156v8.625c.046875.804688.207031 1.597657.480469 2.355469.09375.300781.074218.632813.195312.90625.621094.925781 1.253906 1.839844 1.902344 2.746094l.058594.078125c.378906.296875.785156.558594 1.210937.777344.453125.355468.9375.667968 1.453125.929687 1.027344.421875 2.125.640625 3.234375.648438h8.53125c4.714844 0 8.535157-3.820313 8.535157-8.535157-.039063-1.492187-.476563-2.945312-1.273438-4.207031l69.539062-73.019531 69.539063 73.019531c-.796875 1.261719-1.234375 2.714844-1.273437 4.207031 0 4.714844 3.820312 8.535157 8.535156 8.535157h8.53125c1.105468-.007813 2.199218-.230469 3.21875-.648438.890625-.566406 1.777344-1.132812 2.664062-1.707031l.058594-.078125c.542969-.582031 1-1.234375 1.355469-1.945313.199219-.253906.378906-.519531.546875-.792968.121094-.289063.109375-.632813.203125-.929688.273437-.753906.4375-1.539062.488281-2.339844v-8.625c0-4.714843-3.820312-8.535156-8.535156-8.535156-1.257813.007813-2.496094.300782-3.625.855469l-69.921875-73.386719 69.921875-73.386718c1.128906.550781 2.367187.84375 3.625.851562 4.714844 0 8.535156-3.820312 8.535156-8.535156v-8.625c-.050781-.796875-.214844-1.585938-.488281-2.339844zm0 0"/><path d="m247.464844 324.265625h-170.664063c-4.714843 0-8.535156 3.820313-8.535156 8.535156 0 4.710938 3.820313 8.53125 8.535156 8.53125h170.664063c4.714844 0 8.535156-3.820312 8.535156-8.53125 0-4.714843-3.820312-8.535156-8.535156-8.535156zm0 0"/><path d="m247.464844 358.398438h-170.664063c-4.714843 0-8.535156 3.820312-8.535156 8.535156 0 4.710937 3.820313 8.53125 8.535156 8.53125h170.664063c4.714844 0 8.535156-3.820313 8.535156-8.53125 0-4.714844-3.820312-8.535156-8.535156-8.535156zm0 0"/><path d="m247.464844 392.535156h-170.664063c-4.714843 0-8.535156 3.820313-8.535156 8.53125 0 4.714844 3.820313 8.535156 8.535156 8.535156h170.664063c4.714844 0 8.535156-3.820312 8.535156-8.535156 0-4.710937-3.820312-8.53125-8.535156-8.53125zm0 0"/><path d="m0 486.398438c0 14.140624 11.460938 25.601562 25.601562 25.601562h273.066407c14.136719 0 25.597656-11.460938 25.597656-25.601562v-460.796876c0-14.140624-11.460937-25.601562-25.597656-25.601562h-273.066407c-14.140624 0-25.601562 11.460938-25.601562 25.601562v34.132813c0 4.710937 3.820312 8.53125 8.535156 8.53125 4.710938 0 8.53125-3.820313 8.53125-8.53125v-34.132813c0-4.714843 3.820313-8.535156 8.535156-8.535156h273.066407c4.710937 0 8.53125 3.820313 8.53125 8.535156v460.796876c0 4.714843-3.820313 8.535156-8.53125 8.535156h-273.066407c-4.714843 0-8.535156-3.820313-8.535156-8.535156v-358.398438c0-4.710938-3.820312-8.535156-8.53125-8.535156-4.714844 0-8.535156 3.824218-8.535156 8.535156zm0 0"/><path d="m8.535156 102.398438c3.464844.023437 6.597656-2.058594 7.929688-5.257813 1.328125-3.203125.589844-6.890625-1.871094-9.332031l-1.28125-1.023438c-.476562-.324218-.992188-.582031-1.535156-.769531-.484375-.246094-1.003906-.417969-1.539063-.511719-.5625-.09375-1.132812-.152344-1.703125-.171875-2.261718.035157-4.425781.917969-6.058594 2.476563-.773437.816406-1.382812 1.769531-1.792968 2.816406-1.289063 3.183594-.5859378 6.824219 1.792968 9.300781.8125.769531 1.769532 1.378907 2.8125 1.792969 1.027344.4375 2.128907.667969 3.246094.679688zm0 0"/><path d="m41.632812 75.757812c-4.816406 4.792969-7.519531 11.3125-7.5 18.109376v341.332031c0 14.140625 11.460938 25.601562 25.601563 25.601562h204.800781c14.136719 0 25.597656-11.460937 25.597656-25.601562v-42.664063c0-4.714844-3.820312-8.535156-8.53125-8.535156-4.714843 0-8.535156 3.820312-8.535156 8.535156v42.664063c0 4.714843-3.820312 8.535156-8.53125 8.535156h-204.800781c-4.714844 0-8.535156-3.820313-8.535156-8.535156v-341.332031c0-4.714844 3.820312-8.535157 8.535156-8.535157h204.800781c4.710938 0 8.53125 3.820313 8.53125 8.535157v196.265624c0 4.714844 3.820313 8.535157 8.535156 8.535157 4.710938 0 8.53125-3.820313 8.53125-8.535157v-196.265624c0-14.140626-11.460937-25.601563-25.597656-25.601563h-204.800781c-6.792969-.023437-13.3125 2.675781-18.101563 7.492187zm0 0"/><path d="m281.601562 315.734375c-4.714843 0-8.535156 3.820313-8.535156 8.53125v34.132813c0 4.714843 3.820313 8.535156 8.535156 8.535156 4.710938 0 8.53125-3.820313 8.53125-8.535156v-34.132813c0-4.710937-3.820312-8.53125-8.53125-8.53125zm0 0"/><path d="m187.734375 51.199219c4.710937 0 8.53125-3.820313 8.53125-8.53125 0-4.714844-3.820313-8.535157-8.53125-8.535157h-51.199219c-4.714844 0-8.535156 3.820313-8.535156 8.535157 0 4.710937 3.820312 8.53125 8.535156 8.53125zm0 0"/></g></svg>